<?xml version="1.0" encoding="utf-8"?>
<!-- Generator: Adobe Illustrator 17.0.0, SVG Export Plug-In . SVG Version: 6.00 Build 0)  -->
<!DOCTYPE svg PUBLIC "-//W3C//DTD SVG 1.1//EN" "http://www.w3.org/Graphics/SVG/1.1/DTD/svg11.dtd">
<svg version="1.1" id="Layer_1" xmlns="http://www.w3.org/2000/svg" xmlns:xlink="http://www.w3.org/1999/xlink" x="0px" y="0px"
	 width="74px" height="74px" viewBox="0 0 74 74" enable-background="new 0 0 74 74" xml:space="preserve">
<title>Rectangle 2</title>
<desc>Created with Sketch.</desc>
<g id="Symbols">
	<g id="Smooth-Corner-BG_x2F_Purple">
		
			<linearGradient id="Rectangle-2_1_" gradientUnits="userSpaceOnUse" x1="-867.1554" y1="289.8716" x2="-867.1554" y2="288.8716" gradientTransform="matrix(74 0 0 -74 64206.5 21450.5)">
			<stop  offset="0" style="stop-color:#BB98FF"/>
			<stop  offset="1" style="stop-color:#704CE4"/>
		</linearGradient>
		<path id="Rectangle-2" fill="url(#Rectangle-2_1_)" d="M37,0L37,0c20.435,0,37,16.565,37,37l0,0c0,20.435-16.565,37-37,37l0,0
			C16.565,74,0,57.435,0,37l0,0C0,16.565,16.565,0,37,0z"/>
	</g>
</g>
<g>
	<g>
		<g>
			<path fill="#FFFFFF" d="M47.412,18.286H20.705c-0.303,0-0.549,0.246-0.549,0.549v3.746c-1.067,0.22-1.872,1.166-1.872,2.297
				c0,1.131,0.805,2.078,1.872,2.297v0.998c-1.067,0.22-1.872,1.166-1.872,2.297c0,1.131,0.805,2.078,1.872,2.297v0.998
				c-1.067,0.22-1.872,1.166-1.872,2.297c0,1.131,0.805,2.078,1.872,2.297v0.998c-1.067,0.22-1.872,1.166-1.872,2.297
				c0,1.131,0.805,2.078,1.872,2.297v0.998c-1.067,0.22-1.872,1.166-1.872,2.297c0,1.131,0.805,2.078,1.872,2.297v3.746
				c0,0.303,0.246,0.549,0.549,0.549h4.981c0.303,0,0.549-0.246,0.549-0.549c0-0.303-0.246-0.549-0.549-0.549h-4.432V46.17
				c0.373,0.216,0.625,0.619,0.625,1.08c0,0.303,0.246,0.549,0.549,0.549c0.303,0,0.549-0.246,0.549-0.549
				c0-1.077-0.731-1.987-1.722-2.261v-4.412c0.373,0.216,0.625,0.619,0.625,1.08c0,0.303,0.246,0.549,0.549,0.549
				c0.303,0,0.549-0.246,0.549-0.549c0-1.077-0.731-1.987-1.722-2.261v-4.412c0.373,0.216,0.625,0.619,0.625,1.08
				c0,0.303,0.246,0.549,0.549,0.549c0.303,0,0.549-0.246,0.549-0.549c0-1.077-0.731-1.987-1.722-2.261v-4.412
				c0.373,0.216,0.625,0.619,0.625,1.08c0,0.303,0.246,0.549,0.549,0.549c0.303,0,0.549-0.246,0.549-0.549
				c0-1.077-0.731-1.987-1.722-2.261v-4.412c0.373,0.216,0.625,0.619,0.625,1.08c0,0.303,0.246,0.549,0.549,0.549
				c0.303,0,0.549-0.246,0.549-0.549c0-1.077-0.731-1.987-1.722-2.261v-3.234h25.61v3.698c0,0.303,0.246,0.549,0.549,0.549
				c0.303,0,0.549-0.246,0.549-0.549v-4.246C47.961,18.532,47.715,18.286,47.412,18.286z M20.157,48.404
				c-0.454-0.187-0.775-0.634-0.775-1.154c0-0.521,0.321-0.967,0.775-1.154V48.404z M20.157,42.811
				c-0.454-0.187-0.775-0.634-0.775-1.154s0.321-0.967,0.775-1.154V42.811z M20.157,37.218c-0.454-0.187-0.775-0.634-0.775-1.154
				c0-0.521,0.321-0.967,0.775-1.154V37.218z M20.157,31.625c-0.454-0.187-0.775-0.634-0.775-1.154c0-0.521,0.321-0.967,0.775-1.154
				V31.625z M20.157,26.032c-0.454-0.187-0.775-0.634-0.775-1.154c0-0.521,0.321-0.967,0.775-1.154V26.032z"/>
		</g>
	</g>
	<g>
		<g>
			<path fill="#FFFFFF" d="M29.762,26.044c-0.214-0.214-0.562-0.214-0.776,0l-1.109,1.109l-0.36-0.36
				c-0.214-0.214-0.562-0.214-0.776,0c-0.214,0.214-0.214,0.562,0,0.776l0.748,0.748c0.107,0.107,0.248,0.161,0.388,0.161
				s0.281-0.054,0.388-0.161l1.497-1.497C29.977,26.606,29.977,26.258,29.762,26.044z"/>
		</g>
	</g>
	<g>
		<g>
			<path fill="#FFFFFF" d="M30.797,24.113h-5.111c-0.303,0-0.549,0.246-0.549,0.549v5.111c0,0.303,0.246,0.549,0.549,0.549h5.111
				c0.303,0,0.549-0.246,0.549-0.549v-5.111C31.345,24.359,31.1,24.113,30.797,24.113z M30.248,29.224h-4.014v-4.014h4.014V29.224z"
				/>
		</g>
	</g>
	<g>
		<g>
			<path fill="#FFFFFF" d="M41.934,25.353h-8.417c-0.303,0-0.549,0.246-0.549,0.549s0.246,0.549,0.549,0.549h8.417
				c0.303,0,0.549-0.246,0.549-0.549S42.237,25.353,41.934,25.353z"/>
		</g>
	</g>
	<g>
		<g>
			<path fill="#FFFFFF" d="M38.333,27.91h-4.816c-0.303,0-0.549,0.246-0.549,0.549c0,0.303,0.246,0.549,0.549,0.549h4.816
				c0.303,0,0.549-0.246,0.549-0.549C38.881,28.156,38.636,27.91,38.333,27.91z"/>
		</g>
	</g>
	<g>
		<g>
			<path fill="#FFFFFF" d="M29.762,34.758c-0.214-0.214-0.562-0.214-0.776,0l-1.109,1.109l-0.36-0.36
				c-0.214-0.214-0.562-0.214-0.776,0c-0.214,0.214-0.214,0.562,0,0.776l0.748,0.748c0.107,0.107,0.248,0.161,0.388,0.161
				s0.281-0.054,0.388-0.161l1.497-1.497C29.977,35.319,29.977,34.972,29.762,34.758z"/>
		</g>
	</g>
	<g>
		<g>
			<path fill="#FFFFFF" d="M30.797,32.827h-5.111c-0.303,0-0.549,0.246-0.549,0.549v5.111c0,0.303,0.246,0.549,0.549,0.549h5.111
				c0.303,0,0.549-0.246,0.549-0.549v-5.111C31.345,33.073,31.1,32.827,30.797,32.827z M30.248,37.938h-4.014v-4.014h4.014V37.938z"
				/>
		</g>
	</g>
	<g>
		<g>
			<path fill="#FFFFFF" d="M41.934,34.067h-8.417c-0.303,0-0.549,0.246-0.549,0.549c0,0.303,0.246,0.549,0.549,0.549h8.417
				c0.303,0,0.549-0.246,0.549-0.549C42.483,34.312,42.237,34.067,41.934,34.067z"/>
		</g>
	</g>
	<g>
		<g>
			<path fill="#FFFFFF" d="M38.333,36.624h-4.816c-0.303,0-0.549,0.246-0.549,0.549c0,0.303,0.246,0.549,0.549,0.549h4.816
				c0.303,0,0.549-0.246,0.549-0.549C38.881,36.869,38.636,36.624,38.333,36.624z"/>
		</g>
	</g>
	<g>
		<g>
			<path fill="#FFFFFF" d="M29.762,43.471c-0.214-0.214-0.562-0.214-0.776,0l-1.109,1.109l-0.36-0.36
				c-0.214-0.214-0.562-0.214-0.776,0c-0.214,0.214-0.214,0.562,0,0.776l0.748,0.748c0.107,0.107,0.248,0.161,0.388,0.161
				s0.281-0.054,0.388-0.161l1.497-1.497C29.977,44.033,29.977,43.685,29.762,43.471z"/>
		</g>
	</g>
	<g>
		<g>
			<path fill="#FFFFFF" d="M30.797,41.54h-5.111c-0.303,0-0.549,0.246-0.549,0.549V47.2c0,0.303,0.246,0.549,0.549,0.549h5.111
				c0.303,0,0.549-0.246,0.549-0.549v-5.111C31.345,41.786,31.1,41.54,30.797,41.54z M30.248,46.651h-4.014v-4.014h4.014V46.651z"/>
		</g>
	</g>
	<g>
		<g>
			<path fill="#FFFFFF" d="M47.961,38.183V25.275c0-0.303-0.246-0.549-0.549-0.549c-0.303,0-0.549,0.246-0.549,0.549v12.847
				c-0.082,0.001-0.163,0.002-0.245,0.005c-0.019,0.001-0.037,0.002-0.056,0.002c-0.076,0.003-0.151,0.007-0.226,0.012
				c-0.027,0.002-0.054,0.004-0.081,0.006c-0.08,0.006-0.16,0.013-0.239,0.021c-0.012,0.001-0.025,0.002-0.037,0.004
				c-0.091,0.01-0.181,0.021-0.271,0.033c-0.024,0.003-0.048,0.007-0.072,0.011c-0.07,0.01-0.14,0.021-0.21,0.033
				c-0.023,0.004-0.047,0.008-0.07,0.012c-0.089,0.016-0.178,0.033-0.266,0.052c-0.012,0.002-0.023,0.005-0.035,0.008
				c-0.077,0.017-0.154,0.035-0.231,0.053c-0.024,0.006-0.048,0.012-0.073,0.018c-0.074,0.019-0.148,0.039-0.222,0.059
				c-0.014,0.004-0.027,0.007-0.041,0.011c-0.087,0.025-0.173,0.051-0.258,0.079c-0.019,0.006-0.037,0.012-0.056,0.019
				c-0.07,0.023-0.139,0.047-0.207,0.071c-0.02,0.007-0.041,0.014-0.061,0.022c-0.17,0.062-0.337,0.129-0.502,0.201
				c-0.019,0.008-0.038,0.017-0.057,0.025c-0.071,0.032-0.142,0.064-0.212,0.098c-0.011,0.005-0.023,0.011-0.035,0.016
				c-0.082,0.04-0.164,0.081-0.245,0.123c-0.011,0.006-0.021,0.011-0.032,0.017c-0.07,0.037-0.14,0.075-0.21,0.114
				c-0.015,0.009-0.031,0.017-0.046,0.026c-0.158,0.091-0.314,0.186-0.466,0.286c-0.012,0.008-0.024,0.016-0.036,0.024
				c-0.069,0.046-0.137,0.092-0.205,0.14c-0.008,0.005-0.015,0.01-0.023,0.016c-0.077,0.055-0.153,0.111-0.228,0.168
				c-0.001,0.001-0.002,0.001-0.002,0.002c-0.072,0.055-0.143,0.11-0.213,0.167c-0.01,0.008-0.019,0.016-0.029,0.023
				c-0.144,0.118-0.285,0.24-0.422,0.367c-0.005,0.005-0.01,0.01-0.016,0.015c-0.065,0.061-0.129,0.122-0.193,0.185
				c-0.004,0.004-0.008,0.008-0.013,0.012c-0.134,0.133-0.264,0.271-0.389,0.412c-0.005,0.006-0.01,0.011-0.015,0.017
				c-0.126,0.143-0.248,0.29-0.365,0.441c0,0-0.001,0.001-0.001,0.001c-0.058,0.075-0.115,0.151-0.17,0.228
				c-0.002,0.003-0.005,0.006-0.007,0.009c-0.112,0.155-0.219,0.315-0.321,0.478c-0.002,0.004-0.005,0.008-0.007,0.012
				c-0.102,0.164-0.199,0.331-0.291,0.502h-5.641c-0.303,0-0.549,0.246-0.549,0.549c0,0.303,0.246,0.549,0.549,0.549h5.147
				c0,0.001-0.001,0.002-0.001,0.003c-0.04,0.11-0.078,0.22-0.115,0.332c-0.004,0.012-0.008,0.024-0.012,0.036
				c-0.035,0.11-0.068,0.221-0.099,0.332c-0.003,0.011-0.006,0.022-0.009,0.033c-0.064,0.236-0.119,0.476-0.163,0.719
				c0,0.001-0.001,0.003-0.001,0.004h-4.748c-0.303,0-0.549,0.246-0.549,0.549c0,0.303,0.246,0.549,0.549,0.549h4.619
				c0,0,0,0.001,0,0.001c-0.004,0.077-0.007,0.155-0.01,0.233c0,0.003,0,0.005,0,0.008c-0.002,0.08-0.003,0.161-0.003,0.242
				c0,0.072,0.001,0.144,0.003,0.216c0.001,0.024,0.002,0.048,0.002,0.071c0.002,0.048,0.003,0.096,0.005,0.143
				c0.001,0.028,0.003,0.055,0.005,0.083c0.003,0.044,0.005,0.088,0.008,0.132c0.002,0.028,0.004,0.056,0.007,0.085
				c0.004,0.044,0.007,0.087,0.012,0.131c0.003,0.027,0.005,0.054,0.008,0.081c0.005,0.046,0.01,0.092,0.016,0.137
				c0.003,0.024,0.006,0.047,0.009,0.071c0.007,0.051,0.014,0.102,0.021,0.153c0.003,0.017,0.005,0.035,0.008,0.052
				c0.01,0.063,0.02,0.126,0.031,0.188c0.001,0.005,0.002,0.01,0.003,0.015c0.284,1.586,0.997,3.06,2.067,4.268H27.88
				c-0.303,0-0.549,0.246-0.549,0.549c0,0.303,0.246,0.549,0.549,0.549h13.619c1.495,1.173,3.377,1.873,5.42,1.873
				c4.85,0,8.796-3.946,8.796-8.796C55.715,42.42,52.322,38.701,47.961,38.183z M46.919,54.617c-3.707,0-6.81-2.633-7.538-6.128
				c-0.002-0.01-0.004-0.021-0.007-0.031c-0.009-0.046-0.018-0.093-0.027-0.14c-0.004-0.022-0.008-0.044-0.012-0.066
				c-0.007-0.04-0.014-0.08-0.02-0.12c-0.005-0.029-0.009-0.058-0.013-0.087c-0.005-0.036-0.01-0.072-0.015-0.108
				c-0.004-0.034-0.009-0.067-0.013-0.101c-0.004-0.033-0.008-0.065-0.011-0.098c-0.004-0.037-0.008-0.075-0.011-0.113
				c-0.003-0.03-0.006-0.06-0.008-0.09c-0.003-0.041-0.006-0.082-0.008-0.123c-0.002-0.027-0.004-0.055-0.005-0.082
				c-0.002-0.046-0.004-0.092-0.006-0.139c-0.001-0.023-0.002-0.045-0.003-0.068c-0.002-0.069-0.003-0.138-0.003-0.208
				c0-4.245,3.454-7.699,7.699-7.699c0.074,0,0.148,0.001,0.223,0.003c0.004,0,0.008,0,0.011,0c0.073,0.002,0.147,0.006,0.223,0.01
				c4.033,0.238,7.242,3.593,7.242,7.685C54.618,51.163,51.164,54.617,46.919,54.617z"/>
		</g>
	</g>
	<g>
		<g>
			<path fill="#FFFFFF" d="M46.919,40.845c-1.217,0-2.391,0.359-3.396,1.037c-0.251,0.17-0.317,0.511-0.147,0.762
				c0.17,0.251,0.511,0.317,0.762,0.147c0.823-0.556,1.784-0.849,2.781-0.849c2.743,0,4.975,2.232,4.975,4.975
				c0,2.743-2.232,4.975-4.975,4.975c-2.743,0-4.975-2.232-4.975-4.975c0-0.981,0.285-1.929,0.824-2.743
				c0.167-0.253,0.098-0.593-0.154-0.76c-0.253-0.167-0.593-0.098-0.76,0.154c-0.658,0.994-1.006,2.152-1.006,3.349
				c0,3.348,2.724,6.073,6.073,6.073s6.072-2.724,6.072-6.073C52.991,43.569,50.267,40.845,46.919,40.845z"/>
		</g>
	</g>
	<g>
		<g>
			<path fill="#FFFFFF" d="M47.475,45.241v-1.997c0-0.303-0.246-0.549-0.549-0.549c-0.303,0-0.549,0.246-0.549,0.549v1.997
				c-0.665,0.228-1.144,0.859-1.144,1.6c0,0.306,0.082,0.593,0.224,0.84l-0.76,0.852c-0.202,0.226-0.182,0.573,0.044,0.775
				c0.105,0.093,0.235,0.139,0.365,0.139c0.151,0,0.301-0.062,0.41-0.183l0.765-0.858c0.198,0.082,0.416,0.127,0.643,0.127
				c0.933,0,1.692-0.759,1.692-1.692C48.618,46.1,48.139,45.47,47.475,45.241z M46.926,47.437c-0.328,0-0.595-0.267-0.595-0.595
				s0.267-0.595,0.595-0.595c0.328,0,0.595,0.267,0.595,0.595C47.521,47.17,47.254,47.437,46.926,47.437z"/>
		</g>
	</g>
</g>
</svg>
