<?xml version="1.0" encoding="utf-8"?>
<!-- Generator: Adobe Illustrator 17.0.0, SVG Export Plug-In . SVG Version: 6.00 Build 0)  -->
<!DOCTYPE svg PUBLIC "-//W3C//DTD SVG 1.1//EN" "http://www.w3.org/Graphics/SVG/1.1/DTD/svg11.dtd">
<svg version="1.1" id="Layer_1" xmlns="http://www.w3.org/2000/svg" xmlns:xlink="http://www.w3.org/1999/xlink" x="0px" y="0px"
	 width="74px" height="74px" viewBox="0 0 74 74" enable-background="new 0 0 74 74" xml:space="preserve">
<title>Rectangle 2</title>
<desc>Created with Sketch.</desc>
<g id="Symbols">
	<g id="Smooth-Corner-BG_x2F_Green">
		
			<linearGradient id="Rectangle-2_1_" gradientUnits="userSpaceOnUse" x1="-867.1554" y1="289.8716" x2="-867.1554" y2="288.8716" gradientTransform="matrix(74 0 0 -74 64206.5 21450.5)">
			<stop  offset="0" style="stop-color:#A1ECC4"/>
			<stop  offset="1" style="stop-color:#67D591"/>
		</linearGradient>
		<path id="Rectangle-2" fill="url(#Rectangle-2_1_)" d="M37,0L37,0c20.435,0,37,16.565,37,37l0,0c0,20.435-16.565,37-37,37l0,0
			C16.565,74,0,57.435,0,37l0,0C0,16.565,16.565,0,37,0z"/>
	</g>
</g>
<g>
	<g>
		<g>
			<path fill="#FFFFFF" d="M37,27.944c-4.969,0-8.055,2.544-8.055,6.665c0,0.468,0.38,0.848,0.848,0.848h14.414
				c0.468,0,0.848-0.38,0.848-0.848C45.055,30.497,41.969,27.944,37,27.944z M30.7,33.761c0.56-3.807,4.909-4.121,6.3-4.121
				s5.74,0.314,6.3,4.121H30.7z"/>
		</g>
	</g>
	<g>
		<g>
			<path fill="#FFFFFF" d="M37,19.041c-2.224,0-4.028,1.803-4.028,4.028c0.005,2.222,1.805,4.023,4.028,4.028
				c2.224,0,4.028-1.803,4.028-4.028S39.224,19.041,37,19.041z M37,25.401c-1.288,0-2.332-1.044-2.332-2.332
				s1.044-2.332,2.332-2.332s2.332,1.044,2.332,2.332S38.288,25.401,37,25.401z"/>
		</g>
	</g>
	<g>
		<g>
			<path fill="#FFFFFF" d="M22.586,47.446c-4.969,0-8.055,2.544-8.055,6.665c0,0.468,0.38,0.848,0.848,0.848h14.414
				c0.468,0,0.848-0.38,0.848-0.848C30.641,49.998,27.554,47.446,22.586,47.446z M16.286,53.263c0.56-3.807,4.901-4.121,6.3-4.121
				s5.74,0.314,6.3,4.121H16.286z"/>
		</g>
	</g>
	<g>
		<g>
			<path fill="#FFFFFF" d="M22.586,38.543c-2.224,0-4.028,1.803-4.028,4.028c0.005,2.222,1.805,4.023,4.028,4.028
				c2.224,0,4.028-1.803,4.028-4.028C26.613,40.346,24.81,38.543,22.586,38.543z M22.586,44.903c-1.288,0-2.332-1.044-2.332-2.332
				c0-1.288,1.044-2.332,2.332-2.332s2.332,1.044,2.332,2.332C24.917,43.859,23.873,44.903,22.586,44.903z"/>
		</g>
	</g>
	<g>
		<g>
			<path fill="#FFFFFF" d="M51.414,47.446c-4.969,0-8.055,2.544-8.055,6.665c0,0.468,0.38,0.848,0.848,0.848h14.414
				c0.468,0,0.848-0.38,0.848-0.848C59.47,49.998,56.383,47.446,51.414,47.446z M45.115,53.263c0.56-3.807,4.901-4.121,6.3-4.121
				c1.399,0,5.74,0.314,6.3,4.121H45.115z"/>
		</g>
	</g>
	<g>
		<g>
			<path fill="#FFFFFF" d="M51.414,38.543c-2.224,0-4.028,1.803-4.028,4.028c0.005,2.222,1.805,4.023,4.028,4.028
				c2.224,0,4.028-1.803,4.028-4.028C55.442,40.346,53.639,38.543,51.414,38.543z M51.414,44.903c-1.288,0-2.332-1.044-2.332-2.332
				c0-1.288,1.044-2.332,2.332-2.332c1.288,0,2.332,1.044,2.332,2.332C53.746,43.859,52.702,44.903,51.414,44.903z"/>
		</g>
	</g>
	<g>
		<g>
			<path fill="#FFFFFF" d="M41.384,45.979l-3.536-3.553v-5.003c0-0.468-0.38-0.848-0.848-0.848s-0.848,0.38-0.848,0.848v5.003
				l-3.536,3.536c-0.335,0.33-0.339,0.869-0.008,1.204c0.33,0.335,0.869,0.339,1.204,0.008L37,43.978l3.188,3.197
				c0.356,0.305,0.891,0.263,1.196-0.093C41.656,46.765,41.656,46.297,41.384,45.979z"/>
		</g>
	</g>
</g>
</svg>
