<?xml version="1.0" encoding="utf-8"?>
<!-- Generator: Adobe Illustrator 17.0.0, SVG Export Plug-In . SVG Version: 6.00 Build 0)  -->
<!DOCTYPE svg PUBLIC "-//W3C//DTD SVG 1.1//EN" "http://www.w3.org/Graphics/SVG/1.1/DTD/svg11.dtd">
<svg version="1.1" id="Layer_1" xmlns="http://www.w3.org/2000/svg" xmlns:xlink="http://www.w3.org/1999/xlink" x="0px" y="0px"
	 width="74px" height="74px" viewBox="0 0 74 74" enable-background="new 0 0 74 74" xml:space="preserve">
<title>Rectangle 2</title>
<desc>Created with Sketch.</desc>
<g id="Symbols">
	<g id="Smooth-Corner-BG_x2F_Blue">
		
			<linearGradient id="Rectangle-2_1_" gradientUnits="userSpaceOnUse" x1="-1734.8108" y1="7.2568" x2="-1734.8108" y2="8.2568" gradientTransform="matrix(74 0 0 74 128413 -537)">
			<stop  offset="0" style="stop-color:#6FBFFF"/>
			<stop  offset="1" style="stop-color:#3C8BFF"/>
		</linearGradient>
		<path id="Rectangle-2" fill="url(#Rectangle-2_1_)" d="M37,0L37,0c20.435,0,37,16.565,37,37l0,0c0,20.435-16.565,37-37,37l0,0
			C16.565,74,0,57.435,0,37l0,0C0,16.566,16.565,0,37,0z"/>
	</g>
</g>
<g>
	<g>
		<g>
			<path fill="#FFFFFF" d="M46.307,28.082c-0.145-0.145-0.347-0.229-0.553-0.229s-0.407,0.084-0.553,0.229
				c-0.145,0.145-0.229,0.346-0.229,0.553c0,0.206,0.084,0.407,0.229,0.553c0.145,0.145,0.347,0.229,0.553,0.229
				s0.407-0.084,0.553-0.229c0.145-0.145,0.229-0.347,0.229-0.553C46.536,28.429,46.452,28.227,46.307,28.082z"/>
		</g>
	</g>
	<g>
		<g>
			<path fill="#FFFFFF" d="M28.711,39.032h-6.254c-0.432,0-0.782,0.35-0.782,0.782v6.254c0,0.432,0.35,0.782,0.782,0.782h6.254
				c0.432,0,0.782-0.35,0.782-0.782v-6.254C29.493,39.382,29.143,39.032,28.711,39.032z M27.929,45.286h-4.691v-4.691h4.691V45.286z
				"/>
		</g>
	</g>
	<g>
		<g>
			<path fill="#FFFFFF" d="M56.529,33.385c-0.292-0.121-0.628-0.054-0.852,0.169l-7.966,7.966l0,0l0,0l-9.286,9.286l0,0l0,0
				l-4.87,4.87c-0.224,0.224-0.29,0.56-0.169,0.852c0.121,0.292,0.406,0.483,0.722,0.483h22.124c0.432,0,0.782-0.35,0.782-0.782
				V34.107C57.011,33.791,56.821,33.506,56.529,33.385z M55.448,55.449H35.993l2.983-2.983l0.746,0.746
				c0.153,0.153,0.353,0.229,0.553,0.229s0.4-0.076,0.553-0.229c0.305-0.305,0.305-0.8,0-1.106l-0.746-0.746l1.99-1.99l0.746,0.746
				c0.153,0.153,0.353,0.229,0.553,0.229s0.4-0.076,0.553-0.229c0.305-0.305,0.305-0.8,0-1.106l-0.746-0.746l1.99-1.99l0.746,0.746
				c0.153,0.153,0.353,0.229,0.553,0.229s0.4-0.076,0.553-0.229c0.305-0.305,0.305-0.8,0-1.106l-0.746-0.746l1.99-1.99l0.746,0.746
				c0.153,0.153,0.353,0.229,0.553,0.229s0.4-0.076,0.553-0.229c0.305-0.305,0.305-0.8,0-1.106l-0.746-0.746l1.99-1.99l0.746,0.746
				c0.153,0.153,0.353,0.229,0.553,0.229s0.4-0.076,0.553-0.229c0.305-0.305,0.305-0.8,0-1.106l-0.746-0.746l2.984-2.983v19.456
				H55.448z"/>
		</g>
	</g>
	<g>
		<g>
			<path fill="#FFFFFF" d="M52.62,42.821c-0.292-0.121-0.628-0.054-0.852,0.169l-8.778,8.779c-0.224,0.224-0.291,0.56-0.169,0.852
				c0.121,0.292,0.406,0.483,0.722,0.483h8.778c0.432,0,0.782-0.35,0.782-0.782v-8.778C53.103,43.228,52.912,42.942,52.62,42.821z
				 M51.539,51.54H45.43l6.109-6.109V51.54z"/>
		</g>
	</g>
	<g>
		<g>
			<path fill="#FFFFFF" d="M53.185,28.655c-0.215-0.215-0.536-0.286-0.822-0.181l-5.338,1.955c-0.107,0.039-0.204,0.101-0.284,0.181
				l-1.501,1.501l-9.801-9.801c-0.147-0.147-0.345-0.229-0.553-0.229c-0.207,0-0.406,0.082-0.553,0.229L22.537,34.107h-2.883
				l15.233-15.233l8.359,8.359c0.305,0.305,0.8,0.305,1.106,0c0.305-0.305,0.305-0.8,0-1.106l-8.912-8.912
				c-0.305-0.305-0.8-0.305-1.106,0l-17.12,17.121c-0.224,0.224-0.29,0.56-0.169,0.852s0.406,0.483,0.722,0.483h0.782v20.561
				c0,0.432,0.35,0.782,0.782,0.782H31.76c0.432,0,0.782-0.35,0.782-0.782s-0.35-0.782-0.782-0.782H20.112V35.67h2.749
				c0.207,0,0.406-0.082,0.553-0.229l11.473-11.473l9.248,9.248L32.542,44.809v-7.028h5.472c0.432,0,0.782-0.35,0.782-0.782
				s-0.35-0.782-0.782-0.782H31.76c-0.432,0-0.782,0.35-0.782,0.782v9.069c0,0.091,0.016,0.178,0.045,0.26l-0.7,0.7
				c-1.238,1.238-1.238,3.251,0,4.489c0.619,0.619,1.432,0.928,2.244,0.928c0.813,0,1.626-0.309,2.244-0.928l6.593-6.593
				c0.305-0.305,0.305-0.8,0-1.106c-0.305-0.305-0.8-0.305-1.106,0l-4.995,4.995l-2.278-2.278l14.284-14.284l2.278,2.278
				l-5.458,5.458c-0.305,0.305-0.305,0.8,0,1.106c0.305,0.305,0.8,0.305,1.106,0l5.995-5.995c0.08-0.08,0.142-0.177,0.181-0.284
				l1.955-5.338C53.471,29.191,53.401,28.87,53.185,28.655z M34.199,49.919l-0.492,0.492c-0.304,0.304-0.709,0.472-1.139,0.472
				s-0.835-0.168-1.139-0.472s-0.472-0.709-0.472-1.139s0.167-0.835,0.472-1.139l0.492-0.492L34.199,49.919z M50.373,33.104
				l-1.637-1.637l2.583-0.946L50.373,33.104z"/>
		</g>
	</g>
	<g>
		<g>
			<path fill="#FFFFFF" d="M43.306,41.917c-0.145-0.145-0.347-0.229-0.553-0.229s-0.407,0.084-0.553,0.229
				c-0.145,0.146-0.229,0.347-0.229,0.553s0.084,0.407,0.229,0.553c0.145,0.145,0.346,0.228,0.553,0.228
				c0.206,0,0.407-0.083,0.553-0.228c0.145-0.146,0.229-0.348,0.229-0.553C43.535,42.264,43.452,42.063,43.306,41.917z"/>
		</g>
	</g>
	<g>
		<g>
			<path fill="#FFFFFF" d="M34.887,28.791c-1.638,0-2.971,1.333-2.971,2.971s1.333,2.971,2.971,2.971s2.971-1.333,2.971-2.971
				C37.858,30.123,36.525,28.791,34.887,28.791z M34.887,33.169c-0.776,0-1.407-0.631-1.407-1.407c0-0.776,0.631-1.407,1.407-1.407
				s1.407,0.631,1.407,1.407C36.294,32.537,35.663,33.169,34.887,33.169z"/>
		</g>
	</g>
</g>
</svg>
