<?xml version="1.0" encoding="utf-8"?>
<!-- Generator: Adobe Illustrator 17.0.0, SVG Export Plug-In . SVG Version: 6.00 Build 0)  -->
<!DOCTYPE svg PUBLIC "-//W3C//DTD SVG 1.1//EN" "http://www.w3.org/Graphics/SVG/1.1/DTD/svg11.dtd">
<svg version="1.1" id="Layer_1" xmlns="http://www.w3.org/2000/svg" xmlns:xlink="http://www.w3.org/1999/xlink" x="0px" y="0px"
	 width="74px" height="74px" viewBox="0 0 74 74" enable-background="new 0 0 74 74" xml:space="preserve">
<title>Rectangle 2</title>
<desc>Created with Sketch.</desc>
<g id="Symbols">
	<g id="Smooth-Corner-BG_x2F_Orange">
		
			<linearGradient id="Rectangle-2_1_" gradientUnits="userSpaceOnUse" x1="-867.1554" y1="289.8716" x2="-867.1554" y2="288.8716" gradientTransform="matrix(74 0 0 -74 64206.5 21450.5)">
			<stop  offset="0" style="stop-color:#FFB48D"/>
			<stop  offset="1" style="stop-color:#FF7D54"/>
		</linearGradient>
		<path id="Rectangle-2" fill="url(#Rectangle-2_1_)" d="M37,0L37,0c20.435,0,37,16.565,37,37l0,0c0,20.435-16.565,37-37,37l0,0
			C16.565,74,0,57.435,0,37l0,0C0,16.565,16.565,0,37,0z"/>
	</g>
</g>
<g>
	<path fill="#FCFCFC" d="M52.71,16.906c-2.418,0-4.384,1.966-4.384,4.384c0,0.756,0.192,1.468,0.53,2.09l-7.182,7.182
		c-0.99-0.771-2.229-1.234-3.578-1.234s-2.588,0.463-3.579,1.233l-5.604-5.604c0.257-0.435,0.414-0.935,0.414-1.475
		c0-1.612-1.311-2.923-2.923-2.923c-1.612,0-2.923,1.311-2.923,2.923c0,1.612,1.311,2.923,2.923,2.923
		c0.541,0,1.041-0.157,1.475-0.414l5.604,5.604c-0.77,0.991-1.233,2.23-1.233,3.579s0.463,2.588,1.233,3.578l-9.254,9.254
		c-0.779-0.707-1.808-1.141-2.94-1.141c-2.418,0-4.384,1.966-4.384,4.384c0,2.418,1.966,4.384,4.384,4.384s4.384-1.966,4.384-4.384
		c0-0.756-0.192-1.468-0.53-2.09l9.374-9.374c0.808,0.628,1.783,1.049,2.848,1.183v7.424c-2.07,0.349-3.653,2.15-3.653,4.318
		c0,2.418,1.966,4.384,4.384,4.384s4.384-1.966,4.384-4.384c0-2.168-1.583-3.968-3.653-4.318v-7.424
		c1.065-0.134,2.04-0.555,2.848-1.183l5.604,5.604c-0.258,0.435-0.415,0.935-0.415,1.476c0,1.612,1.311,2.923,2.923,2.923
		c1.612,0,2.923-1.311,2.923-2.923s-1.311-2.923-2.923-2.923c-0.541,0-1.041,0.157-1.475,0.414l-5.604-5.604
		c0.77-0.991,1.233-2.23,1.233-3.579s-0.463-2.588-1.233-3.578l7.062-7.062c0.778,0.707,1.808,1.141,2.94,1.141
		c2.418,0,4.384-1.966,4.384-4.384S55.128,16.906,52.71,16.906z M24.943,23.482c0-0.806,0.655-1.461,1.461-1.461
		s1.461,0.655,1.461,1.461c0,0.806-0.655,1.461-1.461,1.461S24.943,24.288,24.943,23.482z M21.29,54.171
		c-1.612,0-2.923-1.311-2.923-2.923c0-1.612,1.311-2.923,2.923-2.923c1.612,0,2.923,1.311,2.923,2.923
		C24.213,52.861,22.902,54.171,21.29,54.171z M41.019,52.71c0,1.612-1.311,2.923-2.923,2.923s-2.923-1.311-2.923-2.923
		c0-1.612,1.311-2.923,2.923-2.923S41.019,51.098,41.019,52.71z M38.096,39.557c-2.418,0-4.384-1.966-4.384-4.384
		c0-2.418,1.966-4.384,4.384-4.384s4.384,1.966,4.384,4.384C42.48,37.591,40.514,39.557,38.096,39.557z M51.249,46.864
		c0,0.806-0.655,1.461-1.461,1.461c-0.806,0-1.461-0.655-1.461-1.461s0.655-1.461,1.461-1.461
		C50.593,45.403,51.249,46.058,51.249,46.864z M52.71,24.213c-1.612,0-2.923-1.311-2.923-2.923c0-1.612,1.311-2.923,2.923-2.923
		c1.612,0,2.923,1.311,2.923,2.923C55.633,22.902,54.322,24.213,52.71,24.213z"/>
</g>
</svg>
