<?xml version="1.0" encoding="utf-8"?>
<!-- Generator: Adobe Illustrator 17.0.0, SVG Export Plug-In . SVG Version: 6.00 Build 0)  -->
<!DOCTYPE svg PUBLIC "-//W3C//DTD SVG 1.1//EN" "http://www.w3.org/Graphics/SVG/1.1/DTD/svg11.dtd">
<svg version="1.1" id="Layer_1" xmlns="http://www.w3.org/2000/svg" xmlns:xlink="http://www.w3.org/1999/xlink" x="0px" y="0px"
	 width="16px" height="16px" viewBox="0 0 16 16" enable-background="new 0 0 16 16" xml:space="preserve">
<g id="XMLID_9_">
	<g id="XMLID_121_">
		<path id="XMLID_2_" fill="#FFFFFF" d="M5.012,13.688c-0.053,0-0.107-0.014-0.156-0.042c-0.149-0.086-0.199-0.277-0.113-0.425
			l6.209-10.706c0.086-0.149,0.277-0.199,0.425-0.113c0.149,0.086,0.199,0.277,0.113,0.425L5.282,13.533
			C5.224,13.632,5.12,13.688,5.012,13.688z"/>
	</g>
	<g id="XMLID_46_">
		<g id="XMLID_120_">
			<path id="XMLID_8_" fill="#FFFFFF" d="M12.013,12.133H8.891c-0.681,0-1.328-0.149-1.91-0.416
				c-0.146-0.067-0.319-0.011-0.399,0.128h0c-0.092,0.159-0.027,0.363,0.14,0.44c0.045,0.021,0.09,0.041,0.136,0.06
				c0.644,0.272,1.328,0.41,2.033,0.41h3.129c0.175,0,0.316-0.144,0.311-0.32C12.326,12.266,12.183,12.133,12.013,12.133z"/>
		</g>
		<g id="XMLID_119_">
			<path id="XMLID_7_" fill="#FFFFFF" d="M8.891,4.135c0.127,0,0.253,0.007,0.378,0.021C9.391,4.17,9.51,4.109,9.572,4.003v0
				c0.112-0.195-0.013-0.44-0.236-0.465C9.188,3.521,9.04,3.513,8.891,3.513c-0.539,0-1.062,0.106-1.555,0.314
				C6.86,4.028,6.433,4.316,6.067,4.683C5.7,5.049,5.412,5.476,5.211,5.952C5.002,6.445,4.897,6.968,4.897,7.507
				c0,0.539,0.106,1.062,0.314,1.555c0.123,0.291,0.278,0.563,0.464,0.815c0.134,0.181,0.409,0.166,0.522-0.029l0,0
				C6.259,9.74,6.252,9.606,6.178,9.507c-0.414-0.56-0.659-1.252-0.659-2C5.519,5.648,7.032,4.135,8.891,4.135z"/>
		</g>
		<g id="XMLID_101_">
			<path id="XMLID_6_" fill="#FFFFFF" d="M7.222,10.737l-0.023,0.041c-0.086,0.149-0.023,0.34,0.135,0.407
				c0.001,0,0.002,0.001,0.003,0.001c0.493,0.208,1.016,0.314,1.555,0.314h2.35c0.17,0,0.313-0.133,0.318-0.302
				c0.005-0.176-0.136-0.32-0.311-0.32H8.891c-0.463,0-0.904-0.094-1.306-0.263C7.45,10.558,7.294,10.611,7.222,10.737z"/>
		</g>
		<g id="XMLID_100_">
			<path id="XMLID_5_" fill="#FFFFFF" d="M7.834,9.677L7.834,9.677c-0.099,0.171-0.016,0.389,0.171,0.452
				c0.282,0.095,0.58,0.144,0.886,0.144h1.602c0.17,0,0.313-0.133,0.318-0.302c0.005-0.176-0.136-0.32-0.311-0.32H8.891
				c-0.24,0-0.471-0.04-0.687-0.113C8.063,9.49,7.908,9.548,7.834,9.677z"/>
		</g>
		<g id="XMLID_92_">
			<path id="XMLID_4_" fill="#FFFFFF" d="M8.642,5.377c0.092-0.011,0.173-0.065,0.22-0.145l0.02-0.034
				c0.116-0.2-0.032-0.45-0.263-0.445l0,0C8.005,4.813,7.435,5.073,6.985,5.501c-0.547,0.521-0.86,1.246-0.861,2.001
				c-0.001,0.381,0.075,0.75,0.22,1.09c0.101,0.237,0.429,0.257,0.557,0.034h0c0.049-0.085,0.055-0.189,0.016-0.28
				c-0.11-0.258-0.171-0.542-0.171-0.84C6.747,6.409,7.577,5.501,8.642,5.377z"/>
		</g>
		<g id="XMLID_87_" display="none">
			<path id="XMLID_3_" display="inline" fill="#EF4130" d="M5.468,10.602c0.017,0.019,0.034,0.037,0.051,0.056
				C5.504,10.637,5.487,10.618,5.468,10.602z"/>
		</g>
		<g id="XMLID_64_" display="none">
			<path id="XMLID_1_" display="inline" fill="#EF4130" d="M5.522,11.016c0.009-0.013,0.017-0.027,0.024-0.042L5.522,11.016z"/>
		</g>
		<g id="XMLID_47_">
			<path id="XMLID_14_" fill="#FFFFFF" d="M10.009,2.433c-0.366-0.08-0.741-0.121-1.119-0.121c-0.705,0-1.389,0.138-2.033,0.41
				c-0.622,0.263-1.18,0.639-1.66,1.119S4.343,4.879,4.08,5.501c-0.272,0.644-0.41,1.328-0.41,2.033s0.138,1.389,0.41,2.033
				c0.226,0.534,0.535,1.02,0.921,1.451l0.025,0.028c-0.001-0.001-0.002-0.002-0.003-0.003c0.058,0.068,0.144,0.112,0.24,0.112
				c0.108,0,0.202-0.054,0.259-0.137l0.024-0.042c0.02-0.041,0.031-0.087,0.031-0.135c0-0.068-0.022-0.131-0.058-0.182
				c-0.017-0.018-0.034-0.037-0.051-0.056c-0.731-0.815-1.176-1.89-1.176-3.068c0-2.536,2.063-4.599,4.599-4.599
				c0.333,0,0.663,0.036,0.985,0.106c0.133,0.029,0.269-0.031,0.337-0.148v0C10.318,2.71,10.215,2.478,10.009,2.433z M5.014,11.03
				c0.002,0.002,0.003,0.004,0.005,0.007C5.018,11.035,5.016,11.032,5.014,11.03z M4.997,11.006
				c0.002,0.003,0.003,0.005,0.005,0.008C5.001,11.011,4.999,11.008,4.997,11.006z M5.006,11.018
				c0.002,0.002,0.003,0.005,0.005,0.007C5.009,11.023,5.007,11.021,5.006,11.018z M4.95,10.855c0-0.005,0-0.01,0-0.015
				C4.95,10.845,4.95,10.85,4.95,10.855z M4.995,11.001c-0.002-0.003-0.004-0.007-0.006-0.01
				C4.991,10.995,4.993,10.998,4.995,11.001z M4.987,10.989c-0.002-0.004-0.005-0.009-0.007-0.013
				C4.983,10.98,4.985,10.985,4.987,10.989z M4.979,10.972c-0.001-0.003-0.003-0.006-0.004-0.01
				C4.976,10.966,4.978,10.969,4.979,10.972z M4.973,10.958c-0.001-0.003-0.002-0.006-0.003-0.008
				C4.97,10.952,4.972,10.955,4.973,10.958z M4.967,10.943c-0.001-0.003-0.002-0.005-0.003-0.008
				C4.965,10.938,4.966,10.941,4.967,10.943z M4.963,10.929c-0.001-0.003-0.002-0.005-0.002-0.008
				C4.961,10.924,4.962,10.926,4.963,10.929z M4.959,10.915c-0.001-0.003-0.001-0.006-0.002-0.008
				C4.957,10.909,4.958,10.912,4.959,10.915z M4.956,10.9c-0.001-0.003-0.001-0.006-0.002-0.009
				C4.955,10.894,4.955,10.897,4.956,10.9z M4.953,10.885c0-0.003-0.001-0.006-0.001-0.009C4.952,10.879,4.953,10.882,4.953,10.885z
				 M4.951,10.87c0-0.003-0.001-0.007-0.001-0.01C4.951,10.863,4.951,10.867,4.951,10.87z"/>
		</g>
	</g>
</g>
</svg>
