<?xml version="1.0" encoding="UTF-8"?>
<svg width="64px" height="63px" viewBox="0 0 64 63" version="1.1" xmlns="http://www.w3.org/2000/svg" xmlns:xlink="http://www.w3.org/1999/xlink">
    <!-- Generator: Sketch 51.1 (57501) - http://www.bohemiancoding.com/sketch -->
    <title>Artboard</title>
    <desc>Created with Sketch.</desc>
    <defs>
        <path d="M30.5,0.0833333333 C13.71,0.0833333333 0.0833333333,13.71 0.0833333333,30.5 C0.0833333333,47.29 13.71,60.9166667 30.5,60.9166667 C47.29,60.9166667 60.9166667,47.29 60.9166667,30.5 C60.9166667,13.71 47.29,0.0833333333 30.5,0.0833333333 Z M30.5,54.8333333 C17.08625,54.8333333 6.16666667,43.91375 6.16666667,30.5 C6.16666667,17.08625 17.08625,6.16666667 30.5,6.16666667 C43.91375,6.16666667 54.8333333,17.08625 54.8333333,30.5 C54.8333333,43.91375 43.91375,54.8333333 30.5,54.8333333 Z M44.46125,17.0558333 L24.4166667,37.1004167 L16.53875,29.2529167 L12.25,33.5416667 L24.4166667,45.7083333 L48.75,21.375 L44.46125,17.0558333 Z" id="path-1"></path>
    </defs>
    <g id="Artboard" stroke="none" stroke-width="1" fill="none" fill-rule="evenodd">
        <g id="Icon-/-Check-Circle-/-Outlined" transform="translate(1.000000, 1.000000)">
            <mask id="mask-2" fill="white">
                <use xlink:href="#path-1"></use>
            </mask>
            <use id="Mask" fill="#7ED321" fill-rule="nonzero" xlink:href="#path-1"></use>
        </g>
    </g>
</svg>